<svg width="14" height="21" viewBox="0 0 14 21" fill="none" xmlns="http://www.w3.org/2000/svg">
<path d="M0.999949 0H13C13.2652 0 13.5195 0.105357 13.7071 0.292893C13.8946 0.48043 14 0.734784 14 1V20.143C14.0001 20.2324 13.9762 20.3202 13.9308 20.3973C13.8855 20.4743 13.8203 20.5378 13.7421 20.5811C13.6639 20.6244 13.5755 20.6459 13.4861 20.6434C13.3967 20.641 13.3097 20.6146 13.2339 20.567L6.99995 16.03L0.765948 20.566C0.690316 20.6135 0.603336 20.6399 0.514051 20.6424C0.424765 20.6449 0.336435 20.6235 0.258244 20.5803C0.180052 20.5371 0.114855 20.4738 0.0694313 20.3969C0.0240073 20.32 1.49724e-05 20.2323 -5.14984e-05 20.143V1C-5.14984e-05 0.734784 0.105306 0.48043 0.292842 0.292893C0.480378 0.105357 0.734732 0 0.999949 0ZM12 2H1.99995V17.432L6.99995 13.671L12 17.432V2Z" fill="#06070D"/>
</svg>
