<svg width="15" height="15" viewBox="0 0 15 15" fill="none" xmlns="http://www.w3.org/2000/svg">
<g clip-path="url(#clip0_108_135)">
<path d="M11.2694 10.3856L13.9462 13.0619L13.0619 13.9462L10.3856 11.2694C9.38984 12.0676 8.15125 12.5018 6.875 12.5C3.77 12.5 1.25 9.98 1.25 6.875C1.25 3.77 3.77 1.25 6.875 1.25C9.98 1.25 12.5 3.77 12.5 6.875C12.5018 8.15125 12.0676 9.38984 11.2694 10.3856ZM10.0156 9.92188C10.8088 9.10618 11.2518 8.01277 11.25 6.875C11.25 4.4575 9.29187 2.5 6.875 2.5C4.4575 2.5 2.5 4.4575 2.5 6.875C2.5 9.29187 4.4575 11.25 6.875 11.25C8.01277 11.2518 9.10618 10.8088 9.92188 10.0156L10.0156 9.92188Z" fill="#979797"/>
</g>
<defs>
<clipPath id="clip0_108_135">
<rect width="15" height="15" fill="white"/>
</clipPath>
</defs>
</svg>
